<?xml version="1.0" encoding="UTF-8" standalone="no"?><svg xmlns="http://www.w3.org/2000/svg" xmlns:xlink="http://www.w3.org/1999/xlink" contentScriptType="application/ecmascript" contentStyleType="text/css" height="378px" preserveAspectRatio="none" style="width:344px;height:378px;" version="1.1" viewBox="0 0 344 378" width="344px" zoomAndPan="magnify"><defs><filter height="300%" id="f1y1e8viqq2aeo" width="300%" x="-1" y="-1"><feGaussianBlur result="blurOut" stdDeviation="2.0"/><feColorMatrix in="blurOut" result="blurOut2" type="matrix" values="0 0 0 0 0 0 0 0 0 0 0 0 0 0 0 0 0 0 .4 0"/><feOffset dx="4.0" dy="4.0" in="blurOut2" result="blurOut3"/><feBlend in="SourceGraphic" in2="blurOut3" mode="normal"/></filter></defs><g><rect fill="#FEFECE" filter="url(#f1y1e8viqq2aeo)" height="33.9688" rx="12.5" ry="12.5" style="stroke: #A80036; stroke-width: 1.5;" width="110" x="223.5" y="10"/><text fill="#000000" font-family="sans-serif" font-size="12" lengthAdjust="spacingAndGlyphs" textLength="90" x="233.5" y="31.1387">FROM and JOIN</text><rect fill="#FEFECE" filter="url(#f1y1e8viqq2aeo)" height="33.9688" rx="12.5" ry="12.5" style="stroke: #A80036; stroke-width: 1.5;" width="64" x="246.5" y="63.9688"/><text fill="#000000" font-family="sans-serif" font-size="12" lengthAdjust="spacingAndGlyphs" textLength="44" x="256.5" y="85.1074">WHERE</text><rect fill="#FEFECE" filter="url(#f1y1e8viqq2aeo)" height="33.9688" rx="12.5" ry="12.5" style="stroke: #A80036; stroke-width: 1.5;" width="82" x="237.5" y="117.9375"/><text fill="#000000" font-family="sans-serif" font-size="12" lengthAdjust="spacingAndGlyphs" textLength="62" x="247.5" y="139.0762">GROUP BY</text><rect fill="#FEFECE" filter="url(#f1y1e8viqq2aeo)" height="33.9688" rx="12.5" ry="12.5" style="stroke: #A80036; stroke-width: 1.5;" width="66" x="245.5" y="171.9063"/><text fill="#000000" font-family="sans-serif" font-size="12" lengthAdjust="spacingAndGlyphs" textLength="46" x="255.5" y="193.0449">HAVING</text><path d="M10,230.293 L10,255.4258 A0,0 0 0 0 10,255.4258 L226,255.4258 A0,0 0 0 0 226,255.4258 L226,248.293 L246,242.8594 L226,240.293 L226,240.293 L216,230.293 L10,230.293 A0,0 0 0 0 10,230.293 " fill="#FBFB77" filter="url(#f1y1e8viqq2aeo)" style="stroke: #A80036; stroke-width: 1.0;"/><path d="M216,230.293 L216,240.293 L226,240.293 L216,230.293 " fill="#FBFB77" style="stroke: #A80036; stroke-width: 1.0;"/><text fill="#000000" font-family="sans-serif" font-size="13" lengthAdjust="spacingAndGlyphs" textLength="195" x="16" y="247.3599">window functions execute here</text><rect fill="#FEFECE" filter="url(#f1y1e8viqq2aeo)" height="33.9688" rx="12.5" ry="12.5" style="stroke: #A80036; stroke-width: 1.5;" width="65" x="246" y="225.875"/><text fill="#000000" font-family="sans-serif" font-size="12" lengthAdjust="spacingAndGlyphs" textLength="45" x="256" y="247.0137">SELECT</text><rect fill="#FEFECE" filter="url(#f1y1e8viqq2aeo)" height="33.9688" rx="12.5" ry="12.5" style="stroke: #A80036; stroke-width: 1.5;" width="81" x="238" y="279.8438"/><text fill="#000000" font-family="sans-serif" font-size="12" lengthAdjust="spacingAndGlyphs" textLength="61" x="248" y="300.9824">ORDER BY</text><rect fill="#FEFECE" filter="url(#f1y1e8viqq2aeo)" height="33.9688" rx="12.5" ry="12.5" style="stroke: #A80036; stroke-width: 1.5;" width="49" x="254" y="333.8125"/><text fill="#000000" font-family="sans-serif" font-size="12" lengthAdjust="spacingAndGlyphs" textLength="29" x="264" y="354.9512">LIMIT</text><line style="stroke: #A80036; stroke-width: 1.5;" x1="278.5" x2="278.5" y1="43.9688" y2="63.9688"/><polygon fill="#A80036" points="274.5,53.9688,278.5,63.9688,282.5,53.9688,278.5,57.9688" style="stroke: #A80036; stroke-width: 1.0;"/><line style="stroke: #A80036; stroke-width: 1.5;" x1="278.5" x2="278.5" y1="97.9375" y2="117.9375"/><polygon fill="#A80036" points="274.5,107.9375,278.5,117.9375,282.5,107.9375,278.5,111.9375" style="stroke: #A80036; stroke-width: 1.0;"/><line style="stroke: #A80036; stroke-width: 1.5;" x1="278.5" x2="278.5" y1="151.9063" y2="171.9063"/><polygon fill="#A80036" points="274.5,161.9063,278.5,171.9063,282.5,161.9063,278.5,165.9063" style="stroke: #A80036; stroke-width: 1.0;"/><line style="stroke: #A80036; stroke-width: 1.5;" x1="278.5" x2="278.5" y1="205.875" y2="225.875"/><polygon fill="#A80036" points="274.5,215.875,278.5,225.875,282.5,215.875,278.5,219.875" style="stroke: #A80036; stroke-width: 1.0;"/><line style="stroke: #A80036; stroke-width: 1.5;" x1="278.5" x2="278.5" y1="259.8438" y2="279.8438"/><polygon fill="#A80036" points="274.5,269.8438,278.5,279.8438,282.5,269.8438,278.5,273.8438" style="stroke: #A80036; stroke-width: 1.0;"/><line style="stroke: #A80036; stroke-width: 1.5;" x1="278.5" x2="278.5" y1="313.8125" y2="333.8125"/><polygon fill="#A80036" points="274.5,323.8125,278.5,333.8125,282.5,323.8125,278.5,327.8125" style="stroke: #A80036; stroke-width: 1.0;"/><!--MD5=[b5fdcfe7572c266cbe9f0b4b1ef0593e]
@startuml
:FROM and JOIN;
:WHERE;
:GROUP BY;
:HAVING;
:SELECT;
note left
window functions execute here
end note
:ORDER BY;
:LIMIT;
@enduml

PlantUML version 1.2020.06(Sun Apr 05 12:38:32 GMT 2020)
(GPL source distribution)
Java Runtime: OpenJDK Runtime Environment
JVM: OpenJDK 64-Bit Server VM
Java Version: 16-ea+5
Operating System: Linux
Default Encoding: UTF-8
Language: en
Country: US
--></g></svg>